<svg width="32" height="33" viewBox="0 0 32 33" fill="none" xmlns="http://www.w3.org/2000/svg">
<path d="M27.7675 7.85875C27.6736 7.74642 27.5562 7.65607 27.4236 7.59408C27.291 7.53209 27.1464 7.49998 27 7.5H6.835L6.22375 4.1425C6.14003 3.68167 5.89723 3.26484 5.53767 2.96468C5.17812 2.66452 4.72462 2.50007 4.25625 2.5H2C1.73478 2.5 1.48043 2.60536 1.29289 2.79289C1.10536 2.98043 1 3.23478 1 3.5C1 3.76522 1.10536 4.01957 1.29289 4.20711C1.48043 4.39464 1.73478 4.5 2 4.5H4.25L7.445 22.0362C7.53911 22.5563 7.76895 23.0423 8.11125 23.445C7.63881 23.8863 7.29781 24.4498 7.12607 25.073C6.95433 25.6962 6.95856 26.3549 7.13829 26.9759C7.31801 27.5968 7.66622 28.1559 8.14428 28.5911C8.62235 29.0263 9.2116 29.3205 9.8467 29.4412C10.4818 29.562 11.1379 29.5044 11.7423 29.275C12.3467 29.0456 12.8758 28.6533 13.2708 28.1416C13.6658 27.6299 13.9114 27.0187 13.9804 26.3759C14.0493 25.7332 13.9388 25.0838 13.6613 24.5H19.3388C19.115 24.9684 18.9993 25.481 19 26C19 26.6922 19.2053 27.3689 19.5899 27.9445C19.9744 28.5201 20.5211 28.9687 21.1606 29.2336C21.8001 29.4985 22.5039 29.5678 23.1828 29.4327C23.8617 29.2977 24.4854 28.9644 24.9749 28.4749C25.4644 27.9854 25.7977 27.3617 25.9327 26.6828C26.0678 26.0039 25.9985 25.3001 25.7336 24.6606C25.4687 24.0211 25.0201 23.4744 24.4445 23.0899C23.8689 22.7053 23.1922 22.5 22.5 22.5H10.3962C10.1621 22.5 9.93532 22.4177 9.75554 22.2677C9.57576 22.1176 9.45436 21.9092 9.4125 21.6787L9.01625 19.5H23.5163C24.2188 19.4999 24.8991 19.2532 25.4384 18.803C25.9777 18.3527 26.3419 17.7275 26.4675 17.0362L27.9875 8.67875C28.0132 8.5343 28.0069 8.38596 27.9688 8.24424C27.9308 8.10253 27.8621 7.97092 27.7675 7.85875ZM12 26C12 26.2967 11.912 26.5867 11.7472 26.8334C11.5824 27.08 11.3481 27.2723 11.074 27.3858C10.7999 27.4993 10.4983 27.5291 10.2074 27.4712C9.91639 27.4133 9.64912 27.2704 9.43934 27.0607C9.22956 26.8509 9.0867 26.5836 9.02882 26.2926C8.97094 26.0017 9.00065 25.7001 9.11418 25.426C9.22771 25.1519 9.41997 24.9176 9.66665 24.7528C9.91332 24.588 10.2033 24.5 10.5 24.5C10.8978 24.5 11.2794 24.658 11.5607 24.9393C11.842 25.2206 12 25.6022 12 26ZM24 26C24 26.2967 23.912 26.5867 23.7472 26.8334C23.5824 27.08 23.3481 27.2723 23.074 27.3858C22.7999 27.4993 22.4983 27.5291 22.2074 27.4712C21.9164 27.4133 21.6491 27.2704 21.4393 27.0607C21.2296 26.8509 21.0867 26.5836 21.0288 26.2926C20.9709 26.0017 21.0007 25.7001 21.1142 25.426C21.2277 25.1519 21.42 24.9176 21.6666 24.7528C21.9133 24.588 22.2033 24.5 22.5 24.5C22.8978 24.5 23.2794 24.658 23.5607 24.9393C23.842 25.2206 24 25.6022 24 26ZM24.5 16.6787C24.458 16.9098 24.3361 17.1187 24.1555 17.2689C23.975 17.419 23.7473 17.5008 23.5125 17.5H8.6525L7.19875 9.5H25.8013L24.5 16.6787Z" fill="#181818"/>
</svg>
