<svg width="32" height="33" viewBox="0 0 32 33" fill="none" xmlns="http://www.w3.org/2000/svg">
<path d="M26.9999 6.5V11.5C26.9999 11.7652 26.8946 12.0196 26.7071 12.2071C26.5195 12.3946 26.2652 12.5 25.9999 12.5C25.7347 12.5 25.4804 12.3946 25.2928 12.2071C25.1053 12.0196 24.9999 11.7652 24.9999 11.5V8.91375L19.5349 14.375C19.3436 14.5388 19.0976 14.6244 18.8459 14.6147C18.5942 14.605 18.3555 14.5007 18.1774 14.3226C17.9993 14.1445 17.895 13.9057 17.8852 13.6541C17.8755 13.4024 17.9611 13.1563 18.1249 12.965L23.5862 7.5H20.9999C20.7347 7.5 20.4804 7.39464 20.2928 7.20711C20.1053 7.01957 19.9999 6.76522 19.9999 6.5C19.9999 6.23478 20.1053 5.98043 20.2928 5.79289C20.4804 5.60536 20.7347 5.5 20.9999 5.5H25.9999C26.2652 5.5 26.5195 5.60536 26.7071 5.79289C26.8946 5.98043 26.9999 6.23478 26.9999 6.5ZM25.9999 20.5C25.7347 20.5 25.4804 20.6054 25.2928 20.7929C25.1053 20.9804 24.9999 21.2348 24.9999 21.5V24.0863L6.70745 5.7925C6.5198 5.60486 6.26531 5.49944 5.99995 5.49944C5.73458 5.49944 5.48009 5.60486 5.29245 5.7925C5.1048 5.98014 4.99939 6.23464 4.99939 6.5C4.99939 6.76536 5.1048 7.01986 5.29245 7.2075L23.5862 25.5H20.9999C20.7347 25.5 20.4804 25.6054 20.2928 25.7929C20.1053 25.9804 19.9999 26.2348 19.9999 26.5C19.9999 26.7652 20.1053 27.0196 20.2928 27.2071C20.4804 27.3946 20.7347 27.5 20.9999 27.5H25.9999C26.2652 27.5 26.5195 27.3946 26.7071 27.2071C26.8946 27.0196 26.9999 26.7652 26.9999 26.5V21.5C26.9999 21.2348 26.8946 20.9804 26.7071 20.7929C26.5195 20.6054 26.2652 20.5 25.9999 20.5ZM12.4649 18.625L5.29245 25.7925C5.10481 25.9801 4.99939 26.2346 4.99939 26.5C4.99939 26.7654 5.1048 27.0199 5.29245 27.2075C5.48009 27.3951 5.73458 27.5006 5.99995 27.5006C6.26531 27.5006 6.5198 27.3951 6.70745 27.2075L13.8749 20.035C14.0388 19.8437 14.1244 19.5976 14.1147 19.3459C14.1049 19.0943 14.0006 18.8555 13.8225 18.6774C13.6444 18.4993 13.4057 18.395 13.154 18.3853C12.9023 18.3756 12.6562 18.4612 12.4649 18.625Z" fill="#181818"/>
</svg>
