<svg width="80" height="80" viewBox="0 0 80 80" fill="none" xmlns="http://www.w3.org/2000/svg">
<circle cx="40" cy="40" r="40" fill="#FF8800"/>
<path d="M40 27C37.7556 26.9995 35.5493 27.5801 33.5958 28.6853C31.6424 29.7905 30.0083 31.3826 28.8527 33.3066C27.6972 35.2307 27.0594 37.4212 27.0015 39.6648C26.9436 41.9085 27.4677 44.1289 28.5225 46.11L27.1038 50.3662C26.9863 50.7186 26.9692 51.0968 27.0545 51.4583C27.1398 51.8199 27.3242 52.1505 27.5868 52.4132C27.8495 52.6759 28.1801 52.8602 28.5417 52.9455C28.9032 53.0308 29.2814 53.0138 29.6338 52.8962L33.89 51.4775C35.6335 52.4048 37.5653 52.9228 39.5388 52.992C41.5123 53.0613 43.4757 52.68 45.2799 51.8772C47.084 51.0743 48.6816 49.871 49.9513 48.3586C51.221 46.8462 52.1294 45.0644 52.6077 43.1484C53.0859 41.2325 53.1214 39.2328 52.7114 37.301C52.3015 35.3693 51.4568 33.5564 50.2416 31.9999C49.0263 30.4434 47.4725 29.1842 45.6979 28.3178C43.9234 27.4515 41.9748 27.0008 40 27ZM40 51C38.0663 51.0013 36.1664 50.4921 34.4925 49.5238C34.37 49.4527 34.2337 49.4085 34.0928 49.394C33.9518 49.3796 33.8095 49.3953 33.675 49.44L29 51L30.5588 46.325C30.6037 46.1907 30.6196 46.0483 30.6054 45.9074C30.5911 45.7665 30.5471 45.6301 30.4763 45.5075C29.2637 43.4111 28.7769 40.9732 29.0913 38.572C29.4057 36.1707 30.5038 33.9403 32.2151 32.2267C33.9265 30.5132 36.1555 29.4123 38.5564 29.0949C40.9573 28.7775 43.3958 29.2612 45.4937 30.4711C47.5916 31.681 49.2316 33.5494 50.1592 35.7864C51.0869 38.0235 51.2504 40.5042 50.6243 42.8436C49.9983 45.1831 48.6177 47.2505 46.6967 48.7253C44.7757 50.2 42.4218 50.9996 40 51Z" fill="white"/>
</svg>
