<svg width="32" height="32" viewBox="0 0 32 32" fill="none" xmlns="http://www.w3.org/2000/svg">
<path d="M16 3C13.7556 2.99951 11.5493 3.58011 9.59585 4.68529C7.64239 5.79046 6.00834 7.38256 4.85274 9.30662C3.69715 11.2307 3.05938 13.4212 3.00151 15.6648C2.94365 17.9085 3.46765 20.1289 4.52253 22.11L3.10378 26.3662C2.98626 26.7186 2.96921 27.0968 3.05453 27.4583C3.13985 27.8199 3.32417 28.1505 3.58684 28.4132C3.84951 28.6759 4.18015 28.8602 4.54169 28.9455C4.90323 29.0308 5.28139 29.0138 5.63378 28.8962L9.89003 27.4775C11.6335 28.4048 13.5653 28.9228 15.5388 28.992C17.5123 29.0613 19.4757 28.68 21.2799 27.8772C23.084 27.0743 24.6816 25.871 25.9513 24.3586C27.221 22.8462 28.1294 21.0644 28.6077 19.1484C29.0859 17.2325 29.1214 15.2328 28.7114 13.301C28.3015 11.3693 27.4568 9.55642 26.2416 7.9999C25.0263 6.44337 23.4725 5.18415 21.6979 4.31782C19.9234 3.45149 17.9748 3.00081 16 3ZM16 27C14.0663 27.0013 12.1664 26.4921 10.4925 25.5238C10.37 25.4527 10.2337 25.4085 10.0928 25.394C9.95185 25.3796 9.80945 25.3953 9.67503 25.44L5.00003 27L6.55878 22.325C6.60371 22.1907 6.61959 22.0483 6.60537 21.9074C6.59115 21.7665 6.54715 21.6301 6.47628 21.5075C5.26374 19.4111 4.77692 16.9732 5.09132 14.572C5.40572 12.1707 6.50377 9.94027 8.21514 8.22674C9.92651 6.51321 12.1555 5.41234 14.5564 5.0949C16.9573 4.77747 19.3958 5.26122 21.4937 6.47111C23.5916 7.68099 25.2316 9.54939 26.1592 11.7864C27.0869 14.0235 27.2504 16.5042 26.6243 18.8436C25.9983 21.1831 24.6177 23.2505 22.6967 24.7253C20.7757 26.2 18.4218 26.9996 16 27Z" fill="white"/>
</svg>
