<svg width="32" height="33" viewBox="0 0 32 33" fill="none" xmlns="http://www.w3.org/2000/svg">
<path d="M28.865 27C26.9612 23.7088 24.0275 21.3488 20.6037 20.23C22.2973 19.2218 23.613 17.6856 24.349 15.8572C25.0849 14.0289 25.2004 12.0095 24.6775 10.1092C24.1547 8.20889 23.0226 6.53274 21.4549 5.33816C19.8873 4.14357 17.9709 3.4966 16 3.4966C14.0291 3.4966 12.1126 4.14357 10.545 5.33816C8.97737 6.53274 7.84522 8.20889 7.3224 10.1092C6.79958 12.0095 6.91501 14.0289 7.65096 15.8572C8.38691 17.6856 9.70268 19.2218 11.3962 20.23C7.97247 21.3475 5.03872 23.7075 3.13497 27C3.06516 27.1138 3.01885 27.2405 2.99878 27.3725C2.97872 27.5045 2.98529 27.6392 3.01813 27.7687C3.05096 27.8981 3.10939 28.0197 3.18996 28.1262C3.27053 28.2327 3.37162 28.3219 3.48725 28.3887C3.60289 28.4555 3.73073 28.4985 3.86323 28.5151C3.99574 28.5316 4.13022 28.5215 4.25875 28.4853C4.38728 28.4491 4.50725 28.3875 4.61158 28.3041C4.71592 28.2208 4.8025 28.1174 4.86622 28C7.22122 23.93 11.3837 21.5 16 21.5C20.6162 21.5 24.7787 23.93 27.1337 28C27.1974 28.1174 27.284 28.2208 27.3884 28.3041C27.4927 28.3875 27.6127 28.4491 27.7412 28.4853C27.8697 28.5215 28.0042 28.5316 28.1367 28.5151C28.2692 28.4985 28.3971 28.4555 28.5127 28.3887C28.6283 28.3219 28.7294 28.2327 28.81 28.1262C28.8906 28.0197 28.949 27.8981 28.9818 27.7687C29.0147 27.6392 29.0212 27.5045 29.0012 27.3725C28.9811 27.2405 28.9348 27.1138 28.865 27ZM8.99997 12.5C8.99997 11.1155 9.41051 9.76215 10.1797 8.61101C10.9489 7.45987 12.0421 6.56266 13.3212 6.03284C14.6003 5.50303 16.0077 5.36441 17.3656 5.6345C18.7235 5.9046 19.9708 6.57129 20.9497 7.55025C21.9287 8.52922 22.5954 9.7765 22.8655 11.1344C23.1356 12.4922 22.9969 13.8997 22.4671 15.1788C21.9373 16.4579 21.0401 17.5511 19.889 18.3203C18.7378 19.0895 17.3844 19.5 16 19.5C14.1441 19.498 12.3647 18.7599 11.0524 17.4476C9.74009 16.1352 9.00196 14.3559 8.99997 12.5Z" fill="#181818"/>
</svg>
