<svg width="24" height="24" viewBox="0 0 24 24" fill="none" xmlns="http://www.w3.org/2000/svg">
<path d="M18 2.25H6C5.40326 2.25 4.83097 2.48705 4.40901 2.90901C3.98705 3.33097 3.75 3.90326 3.75 4.5V19.5C3.75 20.0967 3.98705 20.669 4.40901 21.091C4.83097 21.5129 5.40326 21.75 6 21.75H18C18.5967 21.75 19.169 21.5129 19.591 21.091C20.0129 20.669 20.25 20.0967 20.25 19.5V4.5C20.25 3.90326 20.0129 3.33097 19.591 2.90901C19.169 2.48705 18.5967 2.25 18 2.25ZM5.25 6.75H18.75V17.25H5.25V6.75ZM6 3.75H18C18.1989 3.75 18.3897 3.82902 18.5303 3.96967C18.671 4.11032 18.75 4.30109 18.75 4.5V5.25H5.25V4.5C5.25 4.30109 5.32902 4.11032 5.46967 3.96967C5.61032 3.82902 5.80109 3.75 6 3.75ZM18 20.25H6C5.80109 20.25 5.61032 20.171 5.46967 20.0303C5.32902 19.8897 5.25 19.6989 5.25 19.5V18.75H18.75V19.5C18.75 19.6989 18.671 19.8897 18.5303 20.0303C18.3897 20.171 18.1989 20.25 18 20.25Z" fill="#FF8800"/>
</svg>
