<svg width="24" height="24" viewBox="0 0 24 24" fill="none" xmlns="http://www.w3.org/2000/svg">
<path d="M19.5 4.5C18.3586 4.49897 17.2295 4.73622 16.185 5.19657C14.7694 2.81813 12.4425 1.63407 12.3356 1.57875C12.2314 1.52661 12.1165 1.49947 12 1.49947C11.8835 1.49947 11.7686 1.52661 11.6644 1.57875C11.5575 1.63313 9.22688 2.81813 7.815 5.19657C6.77051 4.73622 5.64143 4.49897 4.5 4.5C4.30109 4.5 4.11032 4.57902 3.96967 4.71967C3.82902 4.86033 3.75 5.05109 3.75 5.25V9C3.75247 11.0574 4.52267 13.0399 5.90984 14.5594C7.29701 16.0788 9.2013 17.0259 11.25 17.2153V20.5369L7.83563 18.8288C7.74748 18.7847 7.65151 18.7584 7.5532 18.7514C7.45489 18.7444 7.35617 18.7569 7.26268 18.788C7.16918 18.8192 7.08274 18.8685 7.00828 18.933C6.93383 18.9976 6.87282 19.0762 6.82875 19.1644C6.78467 19.2525 6.75839 19.3485 6.75141 19.4468C6.74442 19.5451 6.75687 19.6438 6.78803 19.7373C6.8192 19.8308 6.86847 19.9173 6.93305 19.9917C6.99762 20.0662 7.07623 20.1272 7.16437 20.1713L11.6644 22.4213C11.7686 22.4734 11.8835 22.5005 12 22.5005C12.1165 22.5005 12.2314 22.4734 12.3356 22.4213L16.8356 20.1713C17.0137 20.0822 17.149 19.9261 17.212 19.7373C17.2749 19.5485 17.2603 19.3424 17.1713 19.1644C17.0822 18.9863 16.9261 18.851 16.7373 18.788C16.5485 18.7251 16.3424 18.7397 16.1644 18.8288L12.75 20.5369V17.2153C14.7987 17.0259 16.703 16.0788 18.0902 14.5594C19.4773 13.0399 20.2475 11.0574 20.25 9V5.25C20.25 5.05109 20.171 4.86033 20.0303 4.71967C19.8897 4.57902 19.6989 4.5 19.5 4.5ZM11.25 15.7088C9.60065 15.5223 8.07757 14.7354 6.97105 13.4982C5.86452 12.261 5.25192 10.6599 5.25 9V6.04125C6.89935 6.22773 8.42243 7.01456 9.52895 8.25179C10.6355 9.48902 11.2481 11.0901 11.25 12.75V15.7088ZM12 9.315C11.3691 7.94426 10.3759 6.77179 9.1275 5.92407C10.0247 4.44375 11.3775 3.49594 12 3.11157C12.6234 3.49407 13.9762 4.44188 14.8725 5.92407C13.6243 6.772 12.6312 7.94441 12 9.315ZM18.75 9C18.7481 10.6599 18.1355 12.261 17.029 13.4982C15.9224 14.7354 14.3994 15.5223 12.75 15.7088V12.75C12.7519 11.0901 13.3645 9.48902 14.471 8.25179C15.5776 7.01456 17.1006 6.22773 18.75 6.04125V9Z" fill="#FF8800"/>
</svg>
