<svg width="24" height="24" viewBox="0 0 24 24" fill="none" xmlns="http://www.w3.org/2000/svg">
<path d="M21.5306 20.4694L16.9913 15.9309C17.0944 15.9 17.1966 15.8672 17.2978 15.8306C18.6987 15.3203 19.8398 14.2748 20.4701 12.9236C21.1005 11.5725 21.1687 10.0264 20.6597 8.625C20.5916 8.43819 20.4522 8.28605 20.272 8.20202C20.0918 8.11799 19.8856 8.10894 19.6988 8.17687L15.555 9.68437C15.585 9.62625 15.615 9.56812 15.6422 9.50812C16.1126 8.50017 16.2736 7.37539 16.1048 6.27597C15.936 5.17654 15.4451 4.15183 14.6941 3.33136C13.9431 2.5109 12.9656 1.93151 11.8854 1.66645C10.8051 1.40138 9.67053 1.46254 8.62502 1.84219C8.53218 1.87552 8.44684 1.92683 8.37386 1.99319C8.30088 2.05955 8.24172 2.13966 8.19974 2.22892C8.15777 2.31818 8.13381 2.41484 8.12925 2.51337C8.12468 2.6119 8.1396 2.71037 8.17314 2.80312L9.68064 6.94687C9.62252 6.91687 9.56439 6.88687 9.50439 6.85969C8.49623 6.3899 7.37141 6.22954 6.27213 6.39888C5.17285 6.56823 4.14844 7.05966 3.32839 7.81108C2.50835 8.5625 1.92948 9.54016 1.66495 10.6205C1.40041 11.7008 1.4621 12.8353 1.84221 13.8806C1.91027 14.0674 2.04972 14.2196 2.22991 14.3036C2.4101 14.3876 2.61629 14.3967 2.80314 14.3287L6.94689 12.8203C6.91689 12.8794 6.88689 12.9375 6.85971 12.9975C6.38992 14.0057 6.22956 15.1305 6.39891 16.2298C6.56825 17.329 7.05968 18.3535 7.8111 19.1735C8.56252 19.9935 9.54018 20.5724 10.6205 20.8369C11.7008 21.1015 12.8354 21.0398 13.8806 20.6597C14.0675 20.5916 14.2196 20.4522 14.3036 20.272C14.3877 20.0918 14.3967 19.8856 14.3288 19.6987L12.8203 15.555C12.8794 15.585 12.9375 15.615 12.9975 15.6422C13.6593 15.9521 14.3752 16.1298 15.105 16.1653L20.4694 21.5306C20.6101 21.6714 20.801 21.7504 21 21.7504C21.199 21.7504 21.3899 21.6714 21.5306 21.5306C21.6714 21.3899 21.7504 21.199 21.7504 21C21.7504 20.801 21.6714 20.6101 21.5306 20.4694ZM12.2878 3.38906C12.9704 3.7062 13.5531 4.20402 13.973 4.82862C14.3929 5.45322 14.6339 6.18078 14.6699 6.93253C14.7059 7.68427 14.5356 8.43154 14.1773 9.09342C13.8191 9.7553 13.2866 10.3066 12.6375 10.6875L9.86158 3.05906C10.6851 2.91873 11.5318 3.03389 12.2878 3.38906ZM3.05908 12.6394C2.89615 11.6869 3.07278 10.7075 3.55814 9.87191C4.0435 9.03636 4.80679 8.39771 5.71487 8.06738C6.62296 7.73704 7.61819 7.73599 8.52697 8.0644C9.43575 8.39281 10.2004 9.02984 10.6875 9.86437L3.05908 12.6394ZM10.2188 19.1128C9.53717 18.7953 8.95532 18.2975 8.53611 17.6733C8.11691 17.0491 7.8763 16.3222 7.84029 15.5711C7.80429 14.82 7.97426 14.0734 8.33183 13.412C8.68941 12.7505 9.22098 12.1994 9.86908 11.8181L12.6441 19.4428C11.8209 19.5831 10.9745 19.468 10.2188 19.1128ZM15.4275 14.6709H15.4172C14.6925 14.6764 13.979 14.4915 13.3482 14.1346C12.7174 13.7778 12.1914 13.2615 11.8228 12.6375L19.4475 9.86156C19.5454 10.4488 19.5152 11.0502 19.359 11.6247C19.2027 12.1991 18.9242 12.733 18.5424 13.1898C18.1606 13.6465 17.6846 14.0154 17.1469 14.271C16.6093 14.5267 16.0228 14.6631 15.4275 14.6709Z" fill="#FF8800"/>
</svg>
