<svg width="24" height="24" viewBox="0 0 24 24" fill="none" xmlns="http://www.w3.org/2000/svg">
<path d="M20.25 6H13.8103L17.0306 2.78063C17.1714 2.6399 17.2504 2.44903 17.2504 2.25001C17.2504 2.05098 17.1714 1.86011 17.0306 1.71938C16.8899 1.57865 16.699 1.49959 16.5 1.49959C16.301 1.49959 16.1101 1.57865 15.9694 1.71938L12 5.68969L8.03063 1.71938C7.96094 1.6497 7.87822 1.59442 7.78717 1.55671C7.69613 1.519 7.59855 1.49959 7.5 1.49959C7.40145 1.49959 7.30387 1.519 7.21283 1.55671C7.12178 1.59442 7.03906 1.6497 6.96937 1.71938C6.82864 1.86011 6.74958 2.05098 6.74958 2.25001C6.74958 2.44903 6.82864 2.6399 6.96937 2.78063L10.1897 6H3.75C3.35218 6 2.97064 6.15804 2.68934 6.43935C2.40804 6.72065 2.25 7.10218 2.25 7.5V18.75C2.25 19.1478 2.40804 19.5294 2.68934 19.8107C2.97064 20.092 3.35218 20.25 3.75 20.25H20.25C20.6478 20.25 21.0294 20.092 21.3107 19.8107C21.592 19.5294 21.75 19.1478 21.75 18.75V7.5C21.75 7.10218 21.592 6.72065 21.3107 6.43935C21.0294 6.15804 20.6478 6.00001 20.25 6ZM20.25 18.75H3.75V7.5H20.25V18.75Z" fill="#FF8800"/>
</svg>
